# xmcd
#
# Track frame offsets:
# 150
# 13855
# 25351
# 36384
# 52833
# 72186
# 84926
# 96554
# 113370
# 131915
# 143242
# 156499
#
# Disc length: 2227 seconds
#
#
# Revision: 0
# Processed by: cddbd v1.5.1PL0 Copyright (c) Steve Scherf et al.
# Submitted via: FreeRIP 2.70 
#
DISCID=a308b10c
DTITLE=Soul Set - Gig Guide
DYEAR=2003
DGENRE=Soul
TTITLE0=Green Onions [F]
TTITLE1=In the Midnight Hour [E]
TTITLE2=Hallelujah I Love Him So [G]
TTITLE3=Respect Yourself [Bm7]
TTITLE4=Get Up (S3x Machine) [Eb]
TTITLE5=Lonely Teardrops [E]
TTITLE6=I Can't Get Next to You [C]
TTITLE7=If Loving You is Wrong [Em]
TTITLE8=Mustang Sally [C7]
TTITLE9=Cold Sweat Pt1 [D]
TTITLE10=Dock of the Bay [G]
TTITLE11=RESPECT [D]
EXTD=
EXTT0=
EXTT1=
EXTT2=
EXTT3=
EXTT4=
EXTT5=
EXTT6=
EXTT7=
EXTT8=
EXTT9=
EXTT10=
EXTT11=
PLAYORDER=
